PathFileType        4      (X/Y/Z)      Walking.trc         
DataRate	CameraRate	NumFrames	NumMarkers	Units	OrigDataRate	OrigDataStartFrame	OrigNumFrames
100.0	100.0	8	22	mm	100.0	43	84
Frame#	Time	T2			T10			MANU			LASI			RASI			SACR			LTHI			LKNE			LTIB			LANK			LHEE			LTOE			LD1MH			LD5MH			RTHI			RKNE			RTIB			RANK			RHEE			RTOE			RD1MH			RD5MH			
		X1	Y1	Z1	X2	Y2	Z2	X3	Y3	Z3	X4	Y4	Z4	X5	Y5	Z5	X6	Y6	Z6	X7	Y7	Z7	X8	Y8	Z8	X9	Y9	Z9	X10	Y10	Z10	X11	Y11	Z11	X12	Y12	Z12	X13	Y13	Z13	X14	Y14	Z14	X15	Y15	Z15	X16	Y16	Z16	X17	Y17	Z17	X18	Y18	Z18	X19	Y19	Z19	X20	Y20	Z20	X21	Y21	Z21	X22	Y22	Z22	
43	1.66	610.88021677	1084.44363088	-94.40283551	612.50247346	902.37666377	-103.60701263	726.62179353	1060.22617689	-90.70079549	762.14120849	700.61046619	-157.25105759	716.80404407	704.67943809	9.32861757	610.4363077	752.91394124	-117.00032887	818.62739105	429.61653984	-222.06477161	828.4146482	379.46443577	-172.14081815	872.12392926	152.74466202	-209.59535264	884.21317122	67.26120253	-159.41768999	845.53835852	13.21978706	-122.46356983	1010.72904842	59.39309729	-128.74218274	1005.06998552	54.47620679	-78.39998617	983.50954137	37.38384336	-167.66607256	562.44760801	440.44843964	46.37444972	534.6726452	364.25884515	-7.84762028	369.75425965	191.48553255	10.5064725	332.85914861	112.88779538	-38.53517031	279.84595701	100.67252603	-87.95153037	425.12438528	24.79361282	-63.91562644	416.32161276	29.56107677	-114.12857996	386.35016408	15.64905415	-22.89408412	
44	1.67	626.08572434	1083.82648615	-95.52911958	628.63415274	901.59929424	-104.19723484	741.99041747	1060.0223894	-91.98501421	779.39633771	701.02303812	-157.93506829	734.10045573	703.71263109	8.54934417	627.40567206	752.35611815	-117.05152963	837.52660962	430.70931025	-221.18176707	846.27117805	379.91346188	-171.33073903	881.82711435	152.08427646	-208.64854421	889.19062013	66.43073973	-158.59983474	847.37180396	14.07435747	-122.33618197	1014.99938805	51.99355581	-127.12343194	1008.62455603	47.03873275	-76.86468976	986.67344876	31.5758918	-166.67899947	582.34449265	438.6556524	46.92035926	555.12363049	362.03958435	-6.67094758	383.44920069	197.02874953	12.11860548	343.14617628	120.55340529	-36.56335006	289.77226279	112.81281353	-85.96181824	425.65619624	25.09872178	-63.79440295	417.49165782	31.90101078	-113.69223571	387.38079063	18.11346735	-22.90305991	
45	1.68	641.30842575	1083.51700377	-96.61070924	644.71701297	901.13407969	-104.72191695	757.34849476	1060.10143899	-93.25759297	796.51426388	701.76979602	-158.75440332	751.45623991	702.99190161	7.67322166	644.27669225	752.07629076	-117.01071874	855.60872374	431.84754184	-220.55522929	863.38373897	380.41275206	-170.6691936	890.24033679	151.46215674	-207.87847281	892.68285472	65.69749247	-157.97174561	847.93281409	14.99760142	-122.4075892	1017.9521603	45.25901227	-125.71372275	1010.89501288	40.09737961	-75.6165094	988.50585436	26.39079948	-166.06976435	603.58693247	436.58527467	47.76135117	577.22900014	359.4497843	-5.07966153	399.20709871	202.64891189	14.12941715	355.33847389	128.86858897	-34.31915422	301.77724255	125.90684233	-83.57763119	427.16956226	26.12852644	-63.32615282	419.81626692	35.00232978	-113.00659104	389.59756994	21.86462584	-22.61916972	
46	1.69	656.53209985	1083.51211723	-97.63145957	660.72583777	900.98129038	-105.18616461	772.67685447	1060.45440195	-94.48024611	813.44606967	702.81774081	-159.70776429	768.81091067	702.5227157	6.70389993	661.00988977	752.07270138	-116.91010307	872.60128824	432.86920395	-220.22618302	879.47456681	380.84139858	-170.19684705	897.47002228	150.85620313	-207.28203505	895.02163688	65.07761588	-157.50567989	847.72630364	15.91519488	-122.59786104	1019.93379722	39.59581493	-124.5293562	1012.26873822	34.07626206	-74.66181283	989.4163191	22.12643457	-165.80568076	626.05143396	434.29511018	48.87543589	600.89018544	356.57794287	-3.10308171	417.01712321	208.33217679	16.46701545	369.49898068	137.79532556	-31.89022917	315.95126566	139.7477148	-80.92409076	430.16786176	28.11068745	-62.37060629	423.81955861	38.94667032	-111.9698445	393.47177428	27.09117112	-21.94153678	
47	1.7	671.74109114	1083.80076104	-98.57995388	676.63924668	901.133273	-105.59804051	787.95752231	1061.0667401	-95.6184848	830.14781622	704.12520228	-160.78842223	786.10683043	702.30759931	5.64844347	677.57139585	752.33815672	-116.78139824	888.29647588	433.6418213	-220.21190132	894.31908592	381.09790619	-169.94633645	903.61614376	150.24573265	-206.85300003	896.50143029	64.57311303	-157.17467452	847.14956374	16.76022413	-122.83787249	1021.22649507	35.21911105	-123.57746019	1013.0550783	29.23138816	-73.9861592	989.73911449	18.921252	-165.82889438	649.56728862	431.87828351	50.22328744	625.96280298	353.55650374	-0.79583832	436.80073543	214.08089363	19.03370201	385.63945579	147.2537072	-29.37771829	332.31517024	154.04901773	-78.15654595	435.18816736	31.21911957	-60.79953359	430.03004767	43.73958192	-110.47926057	399.48722019	33.8631258	-20.78062224	
48	1.71	686.92086436	1084.36493762	-99.44982809	692.44012675	901.57532335	-105.96776163	803.17440197	1061.919243	-96.64332629	846.58204231	705.64464153	-161.98465235	803.29149112	702.34639091	4.5170295	693.93379115	752.860932	-116.65360625	902.56553059	434.07528316	-220.50626158	907.76272373	381.11101845	-169.93824293	908.77472286	149.61504916	-206.58278895	897.37191671	64.17426231	-156.95468941	846.48372521	17.48272896	-123.07594472	1022.04624819	32.15710176	-122.85424766	1013.48200433	25.64729143	-73.55732259	989.72814995	16.76339466	-166.06524702	673.92795176	429.4596923	51.75231579	652.26409019	350.55494439	1.76665169	458.41899499	219.90672119	21.71496524	403.72412337	157.11295422	-26.88562566	350.82043422	168.4552965	-75.44254653	442.74553425	35.53362577	-58.52016769	438.91680395	49.29853666	-108.44870048	408.08911809	42.09842128	-19.07403667	
49	1.72	702.05859774	1085.18099345	-100.23978499	708.11572673	902.28679526	-106.30677095	818.31390824	1062.98895527	-97.53263914	862.71888026	707.32563303	-163.28047502	820.31935652	702.63635855	3.32247101	710.07652074	753.62557161	-116.55098126	915.36450564	434.12952448	-221.0827943	919.72969219	380.84619718	-170.17813918	913.04146861	148.95655469	-206.4604413	897.83608366	63.86426919	-156.8250645	845.90192369	18.05647846	-123.27970123	1022.55034923	30.28493436	-122.34546592	1013.70518203	23.26002127	-73.3317578	989.5621309	15.52316633	-166.4359222	698.90817833	427.18746227	53.40225045	679.58434178	347.76693757	4.49440213	481.68565476	225.81965838	24.39032197	423.67681057	167.1870215	-24.51000459	371.35549148	182.56231706	-72.94039053	453.27488437	41.00961774	-55.49766107	450.83343705	55.45622442	-105.82852811	419.63390223	51.55081466	-16.80107334	
50	1.73	717.14375649	1086.22097252	-100.95332692	723.65745545	903.24231772	-106.62677723	833.36551044	1064.25000353	-98.27202353	878.53671513	709.11767807	-164.65659912	837.15315809	703.17213126	2.07963763	725.98589283	754.61348928	-116.49138874	926.73002548	433.81519805	-221.89944949	930.22275254	380.3066678	-170.65523688	916.5149604	148.27247891	-206.4718449	898.052417	63.62460252	-156.76755802	845.48883256	18.48133667	-123.43345194	1022.84999178	29.37620634	-122.02831061	1013.82411023	21.89751842	-73.2620485	989.35621143	14.99829541	-166.86851792	724.28447643	425.22040713	55.11139478	707.70075889	345.39309271	7.28985987	506.38417437	231.8146011	26.94470851	445.39003922	177.23674554	-22.32961452	393.75701798	195.94486157	-70.77782497	467.08227951	47.46547915	-51.77139508	465.98334509	61.97590168	-102.62377787	434.35057871	61.82343215	-13.9929465	
